<svg width="26" height="24" viewBox="0 0 26 24" fill="none" xmlns="http://www.w3.org/2000/svg">
<rect y="0.5" width="26" height="23" rx="5" fill="white"/>
<path fill-rule="evenodd" clip-rule="evenodd" d="M5.75 14.7653C5.33579 14.7653 5 15.1069 5 15.5283C5 15.9497 5.33579 16.2914 5.75 16.2914H11.3889C11.8031 16.2914 12.1389 15.9497 12.1389 15.5283C12.1389 15.1069 11.8031 14.7653 11.3889 14.7653H5.75ZM20.2492 16.2914H15.3607V17.987C15.3607 18.4084 15.0249 18.75 14.6107 18.75C14.1965 18.75 13.8607 18.4084 13.8607 17.987V15.5524C13.8605 15.5444 13.8604 15.5364 13.8604 15.5283C13.8604 15.5203 13.8605 15.5122 13.8607 15.5042V13.0696C13.8607 12.6481 14.1965 12.3065 14.6107 12.3065C15.0249 12.3065 15.3607 12.6481 15.3607 13.0696V14.7653H20.2492C20.6634 14.7653 20.9992 15.1069 20.9992 15.5283C20.9992 15.9497 20.6634 16.2914 20.2492 16.2914ZM12.25 8.97163C12.25 8.55022 12.5858 8.20859 13 8.20859L20.25 8.20859C20.6642 8.20859 21 8.55022 21 8.97163C21 9.39305 20.6642 9.73468 20.25 9.73468L13 9.73468C12.5858 9.73468 12.25 9.39305 12.25 8.97163ZM5.75 8.20859C5.33579 8.20859 5 8.55022 5 8.97163C5 9.39305 5.33579 9.73468 5.75 9.73468H9.02734V11.4304C9.02734 11.8518 9.36313 12.1935 9.77734 12.1935C10.1916 12.1935 10.5273 11.8518 10.5273 11.4304V8.99774C10.5276 8.98907 10.5278 8.98037 10.5278 8.97163C10.5278 8.9629 10.5276 8.9542 10.5273 8.94553V6.51301C10.5273 6.09159 10.1916 5.74996 9.77734 5.74996C9.36313 5.74996 9.02734 6.09159 9.02734 6.51301V8.20859H5.75Z" fill="#3F434A"/>
</svg>
